<svg width="15" height="15" viewBox="0 0 15 15" fill="none" xmlns="http://www.w3.org/2000/svg">
<path fill-rule="evenodd" clip-rule="evenodd" d="M15 0H0V15H15V0ZM7.9966 7.00339L7.99654 3.48001C7.99654 3.35677 7.94832 3.23823 7.86241 3.15015C7.76627 3.05401 7.63588 2.99999 7.49992 2.99999C7.36396 2.99999 7.23357 3.054 7.13744 3.15013C7.05701 3.23675 7.0129 3.35093 7.0142 3.46912L7.01426 7.01425L3.48725 6.99606C3.4244 6.99542 3.36207 7.00762 3.3041 7.03193C3.24613 7.05624 3.19374 7.09214 3.15014 7.13743C3.05401 7.23356 3 7.36395 3 7.49991C3 7.63587 3.05402 7.76626 3.15016 7.8624C3.19471 7.90591 3.24744 7.94016 3.3053 7.96318C3.36316 7.9862 3.42501 7.99753 3.48727 7.99653L7.0034 7.99659L6.98534 11.5018C6.98521 11.5672 6.99868 11.6319 7.02489 11.6918C7.0511 11.7518 7.08948 11.8056 7.13759 11.8498C7.23373 11.946 7.36412 12 7.50008 12C7.63604 12 7.76643 11.946 7.86257 11.8499C7.94299 11.7632 7.98711 11.6491 7.98581 11.5309L7.98574 7.98573L11.5128 8.00392C11.5756 8.00457 11.6379 7.99236 11.6959 7.96805C11.7539 7.94374 11.8063 7.90784 11.8499 7.86256C11.946 7.76642 12 7.63603 12 7.50007C12 7.36411 11.946 7.23372 11.8498 7.13758C11.8044 7.09319 11.7505 7.05843 11.6913 7.03539C11.6322 7.01234 11.569 7.00148 11.5055 7.00346L7.9966 7.00339Z" fill="#005A2B"/>
</svg>
