<svg width="14" height="18" viewBox="0 0 14 18" fill="none" xmlns="http://www.w3.org/2000/svg">
<path d="M13.8131 4.51406C13.9324 4.6346 14 4.79732 14 4.96808V17.3571C14 17.7127 13.7156 18 13.3636 18H0.636364C0.284375 18 0 17.7127 0 17.3571V0.642857C0 0.287277 0.284375 0 0.636364 0H9.0821C9.25114 0 9.4142 0.0683036 9.53352 0.188839L13.8131 4.51406ZM12.5324 5.26339L8.78977 1.48259V5.26339H12.5324ZM8.2596 8.31375L7.04216 10.3689L5.81278 8.31295C5.79153 8.27744 5.76156 8.24808 5.72578 8.2277C5.69 8.20733 5.64962 8.19662 5.60855 8.19663H4.84412C4.79907 8.19663 4.75495 8.20952 4.71685 8.23379C4.69031 8.25068 4.66734 8.27268 4.64923 8.29855C4.63112 8.32441 4.61823 8.35362 4.61131 8.38452C4.60438 8.41542 4.60355 8.44739 4.60886 8.47861C4.61418 8.50983 4.62553 8.53969 4.64227 8.56647L6.27972 11.1865L4.6202 13.854C4.59627 13.8924 4.58359 13.9369 4.58361 13.9823C4.58361 14.0463 4.60875 14.1076 4.6535 14.1528C4.69826 14.198 4.75895 14.2234 4.82224 14.2234H5.50753C5.54823 14.2234 5.58825 14.2129 5.62379 14.1928C5.65933 14.1728 5.6892 14.1439 5.71057 14.1089L6.95744 12.0704L8.19636 14.1085C8.21772 14.1436 8.24763 14.1726 8.28325 14.1928C8.31887 14.2129 8.359 14.2234 8.3998 14.2234H9.14514C9.19083 14.2234 9.23555 14.2102 9.274 14.1852C9.30038 14.1681 9.32317 14.146 9.34106 14.12C9.35895 14.094 9.3716 14.0647 9.37829 14.0338C9.38497 14.0028 9.38556 13.9709 9.38002 13.9397C9.37448 13.9086 9.36292 13.8788 9.34599 13.8522L7.67892 11.2295L9.37523 8.56828C9.39997 8.52932 9.41309 8.48399 9.41301 8.4377C9.41301 8.37376 9.38787 8.31245 9.34312 8.26724C9.29836 8.22203 9.23767 8.19663 9.17438 8.19663H8.46443C8.4232 8.19666 8.38267 8.20748 8.34681 8.22804C8.31095 8.2486 8.28097 8.2782 8.2598 8.31395L8.2596 8.31375Z" fill="#005A2B"/>
</svg>
