<svg width="46" height="46" viewBox="0 0 46 46" fill="none" xmlns="http://www.w3.org/2000/svg">
<rect x="0.5" y="0.5" width="45" height="45" stroke="#DE904B"/>
<path d="M29.3146 13.491H9.99078C8.8913 13.491 8 14.3958 8 15.512V31.979C8 33.0952 8.8913 34 9.99077 34H23.9999C24.285 34 24.5161 33.7654 24.5161 33.476C24.5161 33.1867 24.285 32.9521 23.9999 32.9521H9.99077C9.4614 32.9521 9.03225 32.5164 9.03225 31.979V15.512C9.03225 14.9746 9.4614 14.5389 9.99078 14.5389H29.166C29.1809 14.179 29.2317 13.8286 29.3146 13.491Z" fill="black"/>
<path d="M29.4464 16.485H12.2027C11.5105 16.485 10.9493 17.0547 10.9493 17.7575V20.3772C10.9493 20.6666 11.1804 20.9012 11.4654 20.9012C11.7505 20.9012 11.9815 20.6666 11.9815 20.3772V17.7575C11.9815 17.6335 12.0806 17.5329 12.2027 17.5329H29.9404C29.7395 17.206 29.5731 16.8549 29.4464 16.485Z" fill="black"/>
<path fill-rule="evenodd" clip-rule="evenodd" d="M32.3317 19.599C32.6599 19.7384 33.0054 19.8444 33.3639 19.9128V29.7335C33.3639 30.4363 32.8028 31.006 32.1105 31.006H12.2027C11.5105 31.006 10.9493 30.4363 10.9493 29.7335V23.7455C10.9493 23.4561 11.1804 23.2216 11.4654 23.2216C11.7505 23.2216 11.9815 23.4561 11.9815 23.7455V26.9641H15.6313L19.672 21.4948C19.9901 21.0642 20.623 21.0542 20.9542 21.4745L23.3054 24.4581L25.6384 22.0897C25.9551 21.7682 26.4687 21.7682 26.7854 22.0897L32.3317 27.7201V19.599ZM26.2119 22.9895L32.3317 29.2021V29.7335C32.3317 29.8575 32.2327 29.9581 32.1105 29.9581H12.2027C12.0806 29.9581 11.9815 29.8575 11.9815 29.7335V28.012H15.7419C15.9972 28.012 16.2376 27.89 16.3907 27.6826L20.3265 22.3554L22.6537 25.3086C22.9557 25.6918 23.5188 25.7235 23.8606 25.3765L26.2119 22.9895Z" fill="black"/>
<path d="M35.281 19.9128C35.6395 19.8445 35.985 19.7385 36.3132 19.5991V31.979C36.3132 33.0952 35.4219 34 34.3225 34H28.4239C28.1388 34 27.9077 33.7654 27.9077 33.476C27.9077 33.1867 28.1388 32.9521 28.4239 32.9521H34.3225C34.8518 32.9521 35.281 32.5164 35.281 31.979V19.9128Z" fill="black"/>
<path fill-rule="evenodd" clip-rule="evenodd" d="M15.152 18.7305C14.0526 18.7305 13.1613 19.6354 13.1613 20.7515C13.1613 21.8676 14.0526 22.7725 15.152 22.7725C16.2515 22.7725 17.1428 21.8676 17.1428 20.7515C17.1428 19.6354 16.2515 18.7305 15.152 18.7305ZM14.1935 20.7515C14.1935 20.2141 14.6227 19.7784 15.152 19.7784C15.6814 19.7784 16.1106 20.2141 16.1106 20.7515C16.1106 21.2889 15.6814 21.7246 15.152 21.7246C14.6227 21.7246 14.1935 21.2889 14.1935 20.7515Z" fill="black"/>
<path fill-rule="evenodd" clip-rule="evenodd" d="M34.3226 10.0479C31.7572 10.0479 29.6775 12.1591 29.6775 14.7635C29.6775 17.3678 31.7572 19.479 34.3226 19.479C36.888 19.479 38.9677 17.3678 38.9677 14.7635C38.9677 12.1591 36.888 10.0479 34.3226 10.0479ZM28.6452 14.7635C28.6452 11.5804 31.1871 9 34.3226 9C37.4581 9 40 11.5804 40 14.7635C40 17.9466 37.4581 20.5269 34.3226 20.5269C31.1871 20.5269 28.6452 17.9466 28.6452 14.7635Z" fill="black"/>
<path fill-rule="evenodd" clip-rule="evenodd" d="M34.3226 11.994C34.6077 11.994 34.8387 12.2286 34.8387 12.518V14.2395H36.5346C36.8196 14.2395 37.0507 14.4741 37.0507 14.7635C37.0507 15.0528 36.8196 15.2874 36.5346 15.2874H34.8387V17.009C34.8387 17.2984 34.6077 17.5329 34.3226 17.5329C34.0376 17.5329 33.8065 17.2984 33.8065 17.009V15.2874H32.1106C31.8256 15.2874 31.5945 15.0528 31.5945 14.7635C31.5945 14.4741 31.8256 14.2395 32.1106 14.2395H33.8065V12.518C33.8065 12.2286 34.0376 11.994 34.3226 11.994Z" fill="black"/>
</svg>
