<svg width="20" height="21" viewBox="0 0 20 21" fill="none" xmlns="http://www.w3.org/2000/svg">
<path fill-rule="evenodd" clip-rule="evenodd" d="M16.8214 0.828068C17.3442 0.760958 17.981 0.882523 18.5685 1.49691C19.1671 2.12284 19.2761 2.80165 19.2045 3.35286C19.135 3.88782 18.8985 4.28994 18.8207 4.41117C18.7996 4.44414 18.7782 4.47234 18.761 4.49445L14.7846 9.60312C14.556 9.89679 14.3002 10.1662 14.0212 10.4075L5.19768 18.035C5.005 18.2015 4.75526 18.3998 4.44186 18.4754C4.03748 18.5729 3.38159 18.5827 2.81303 17.9634C2.17984 17.2737 2.28294 16.5314 2.40869 16.1471C2.47941 15.931 2.60771 15.7584 2.71326 15.6261L10.1652 6.28972C10.3716 6.03103 10.5994 5.79174 10.8459 5.57463L15.6876 1.309C15.7167 1.2834 15.7528 1.25283 15.7955 1.22348C15.927 1.13317 16.3138 0.893231 16.8214 0.828068ZM16.8892 1.44733C16.5123 1.49571 16.2159 1.67826 16.1202 1.74407C16.1069 1.75317 16.092 1.76521 16.0698 1.78473L11.228 6.05036C11.0086 6.24368 10.8058 6.45676 10.6219 6.68711L3.17 16.0235C3.07089 16.1477 3.00556 16.2452 2.97305 16.3446C2.89001 16.5984 2.81947 17.0657 3.24513 17.5293C3.62316 17.9411 4.03693 17.9339 4.3125 17.8675C4.47747 17.8277 4.63327 17.7167 4.81984 17.5554L13.6433 9.92799C13.8918 9.71316 14.1195 9.47323 14.3231 9.21174L18.2995 4.10307C18.3128 4.08606 18.3205 4.07543 18.3262 4.06653C18.3808 3.98137 18.5615 3.67289 18.6133 3.27405C18.663 2.89145 18.5974 2.41325 18.1448 1.93996C17.6999 1.47472 17.2509 1.40089 16.8892 1.44733Z" fill="black"/>
<path fill-rule="evenodd" clip-rule="evenodd" d="M19.1215 0.614269C19.0606 0.605848 18.9977 0.616509 18.9418 0.635251C18.8855 0.654138 18.8277 0.695231 18.7294 0.774529L17.7912 1.53084L17.4365 1.04759L18.3786 0.288139C18.4679 0.216147 18.6011 0.108678 18.7676 0.0528933C18.9889 -0.0212794 19.3875 -0.070449 19.7274 0.285045C20.0674 0.64054 20.0204 1.05729 19.9494 1.28873C19.8961 1.46279 19.7933 1.60216 19.7245 1.69551L18.9982 2.68059L18.536 2.3097L19.2593 1.32869C19.3351 1.22584 19.3744 1.16547 19.3925 1.10654C19.4104 1.04806 19.4206 0.98233 19.4126 0.918618C19.4052 0.860437 19.3816 0.792123 19.312 0.719406C19.2425 0.646689 19.1772 0.621959 19.1215 0.614269Z" fill="black"/>
<path fill-rule="evenodd" clip-rule="evenodd" d="M18.3633 17.8801L15.8935 7.34098L16.4731 7.18763L18.9429 17.7268C19.0751 18.2907 18.9143 18.8883 18.5192 19.3014L17.0177 20.8715C16.8331 21.0646 16.5275 21.0362 16.3816 20.8124L11.1169 12.7397L11.6108 12.3852L16.7528 20.2699L18.0991 18.8621C18.3455 18.6045 18.4458 18.2318 18.3633 17.8801Z" fill="black"/>
<path fill-rule="evenodd" clip-rule="evenodd" d="M2.98353 1.79757L13.0622 4.38025L13.2088 3.77418L3.13017 1.19151C2.59091 1.05332 2.01944 1.22147 1.62439 1.63457L0.12291 3.20466C-0.0617511 3.39776 -0.0346355 3.71732 0.179358 3.86992L7.89939 9.37512L8.2384 8.8587L0.698173 3.48172L2.0445 2.07387C2.29086 1.81626 2.64724 1.7114 2.98353 1.79757Z" fill="black"/>
<path fill-rule="evenodd" clip-rule="evenodd" d="M5.70252 1.09125L4.66822 2.17281L4.24811 1.73351L5.41118 0.517298C5.57406 0.346975 5.83702 0.345807 5.99853 0.514689L6.86345 1.41913C7.02495 1.58802 7.02383 1.863 6.86095 2.03332L6.32096 2.59799L5.90085 2.15869L6.31208 1.72867L5.70252 1.09125Z" fill="black"/>
<path fill-rule="evenodd" clip-rule="evenodd" d="M19.0388 15.0369L18.0045 16.1185L18.4246 16.5578L19.5877 15.3416C19.7506 15.1712 19.7517 14.8963 19.5902 14.7274L18.7253 13.8229C18.5638 13.6541 18.3008 13.6552 18.1379 13.8255L17.5979 14.3902L18.018 14.8295L18.4292 14.3995L19.0388 15.0369Z" fill="black"/>
<path fill-rule="evenodd" clip-rule="evenodd" d="M10.0824 2.19634L9.04807 3.2779L8.62797 2.8386L9.79103 1.62239C9.95391 1.45207 10.2169 1.4509 10.3784 1.61978L11.2433 2.52423C11.4048 2.69311 11.4037 2.96809 11.2408 3.13841L10.7008 3.70308L10.2807 3.26378L10.6919 2.83376L10.0824 2.19634Z" fill="black"/>
<path fill-rule="evenodd" clip-rule="evenodd" d="M17.982 10.4569L16.9477 11.5385L17.3678 11.9778L18.5309 10.7616C18.6938 10.5913 18.6949 10.3163 18.5334 10.1474L17.6684 9.24296C17.5069 9.07407 17.244 9.07524 17.0811 9.24556L16.5411 9.81023L16.9612 10.2495L17.3724 9.81952L17.982 10.4569Z" fill="black"/>
<path fill-rule="evenodd" clip-rule="evenodd" d="M9.06156 8.24502C8.96764 8.38741 8.78176 8.4242 8.64639 8.3272L3.36919 4.54574C3.23382 4.44873 3.20021 4.25467 3.29413 4.11228C3.38805 3.96989 3.57392 3.9331 3.7093 4.0301L8.9865 7.81156C9.12187 7.90857 9.15548 8.10263 9.06156 8.24502Z" fill="black"/>
<path fill-rule="evenodd" clip-rule="evenodd" d="M12.1153 11.4383C11.9791 11.5365 11.9439 11.7308 12.0367 11.8724L15.6529 17.3907C15.7457 17.5323 15.9312 17.5674 16.0674 17.4692C16.2036 17.371 16.2388 17.1766 16.146 17.0351L12.5298 11.5167C12.437 11.3752 12.2514 11.34 12.1153 11.4383Z" fill="black"/>
<path fill-rule="evenodd" clip-rule="evenodd" d="M2.79273 3.77468C2.69881 3.91707 2.51293 3.95386 2.37756 3.85686L1.04144 2.89944C0.906064 2.80244 0.872458 2.60837 0.966376 2.46598C1.06029 2.32359 1.24617 2.2868 1.38155 2.38381L2.71767 3.34123C2.85304 3.43823 2.88665 3.6323 2.79273 3.77468Z" fill="black"/>
<path fill-rule="evenodd" clip-rule="evenodd" d="M16.3903 17.9935C16.2541 18.0917 16.2189 18.2861 16.3117 18.4277L17.2273 19.8248C17.32 19.9664 17.5056 20.0015 17.6418 19.9033C17.7779 19.8051 17.8131 19.6107 17.7204 19.4692L16.8048 18.072C16.712 17.9305 16.5264 17.8953 16.3903 17.9935Z" fill="black"/>
<path fill-rule="evenodd" clip-rule="evenodd" d="M4.14473 14.7649L1.20389 15.0691C1.06095 15.0839 0.997652 15.2659 1.09871 15.3716L5.3411 19.8079C5.43953 19.9108 5.60904 19.851 5.62939 19.7062L6.04679 16.7373L6.63709 16.8229L6.21969 19.7918C6.12774 20.4459 5.36203 20.7158 4.91741 20.2509L0.675018 15.8147C0.218528 15.3373 0.504437 14.515 1.15014 14.4482L4.09098 14.144L4.14473 14.7649Z" fill="black"/>
<path fill-rule="evenodd" clip-rule="evenodd" d="M5.10976 15.6654C5.22577 15.7867 5.22496 15.9842 5.10797 16.1066L2.62399 18.704C2.50699 18.8264 2.3181 18.8272 2.20209 18.7059C2.08608 18.5846 2.08688 18.3871 2.20388 18.2647L4.68786 15.6673C4.80486 15.5449 4.99375 15.5441 5.10976 15.6654Z" fill="black"/>
<path fill-rule="evenodd" clip-rule="evenodd" d="M9.65089 10.913C9.7669 11.0343 9.7661 11.2318 9.6491 11.3541L6.74974 14.386C6.63274 14.5083 6.44385 14.5092 6.32784 14.3879C6.21183 14.2665 6.21264 14.069 6.32964 13.9467L9.229 10.9148C9.34599 10.7925 9.53489 10.7916 9.65089 10.913Z" fill="black"/>
<path fill-rule="evenodd" clip-rule="evenodd" d="M5.92077 14.8135C6.03678 14.9348 6.03597 15.1324 5.91898 15.2547L5.91067 15.2634C5.79367 15.3857 5.60478 15.3866 5.48877 15.2653C5.37276 15.144 5.37356 14.9464 5.49056 14.8241L5.49887 14.8154C5.61587 14.6931 5.80476 14.6922 5.92077 14.8135Z" fill="black"/>
</svg>
