<svg width="18" height="18" viewBox="0 0 18 18" fill="none" xmlns="http://www.w3.org/2000/svg">
<path d="M17.1131 1.98112H13.959V0.886917C13.959 0.821649 13.9331 0.759054 13.887 0.712903C13.8408 0.666751 13.7782 0.640823 13.7129 0.640823H12.6636C12.6313 0.640805 12.5993 0.647158 12.5694 0.659519C12.5395 0.671879 12.5124 0.690006 12.4895 0.712861C12.4667 0.735717 12.4486 0.762853 12.4362 0.792719C12.4238 0.822585 12.4175 0.854594 12.4175 0.886917V1.98112H9.77081V0.886917C9.77083 0.854594 9.76447 0.822585 9.75211 0.792719C9.73975 0.762853 9.72162 0.735717 9.69877 0.712861C9.67591 0.690006 9.64878 0.671879 9.61891 0.659519C9.58904 0.647158 9.55704 0.640805 9.52471 0.640823H8.47537C8.44305 0.640805 8.41104 0.647158 8.38117 0.659519C8.35131 0.671879 8.32417 0.690006 8.30131 0.712861C8.27846 0.735717 8.26033 0.762853 8.24797 0.792719C8.23561 0.822585 8.22926 0.854594 8.22928 0.886917V1.98112H5.58285V0.886917C5.58287 0.854594 5.57652 0.822585 5.56416 0.792719C5.5518 0.762853 5.53367 0.735717 5.51082 0.712861C5.48796 0.690006 5.46082 0.671879 5.43096 0.659519C5.40109 0.647158 5.36908 0.640805 5.33676 0.640823H4.28713C4.22187 0.640823 4.15927 0.666751 4.11312 0.712903C4.06697 0.759054 4.04104 0.821649 4.04104 0.886917V1.98112H0.886963C0.85464 1.9811 0.822631 1.98745 0.792765 1.99982C0.762899 2.01218 0.735763 2.0303 0.712907 2.05316C0.690052 2.07601 0.671925 2.10315 0.659564 2.13302C0.647203 2.16288 0.640851 2.19489 0.640869 2.22721V17.1131C0.640851 17.1454 0.647203 17.1774 0.659564 17.2073C0.671925 17.2371 0.690052 17.2643 0.712907 17.2871C0.735763 17.31 0.762899 17.3281 0.792765 17.3405C0.822631 17.3528 0.85464 17.3592 0.886963 17.3592H17.1131C17.1454 17.3592 17.1775 17.3528 17.2073 17.3405C17.2372 17.3281 17.2643 17.31 17.2872 17.2871C17.31 17.2643 17.3282 17.2371 17.3405 17.2073C17.3529 17.1774 17.3592 17.1454 17.3592 17.1131V2.22721C17.3592 2.19489 17.3529 2.16288 17.3405 2.13302C17.3282 2.10315 17.31 2.07601 17.2872 2.05316C17.2643 2.0303 17.2372 2.01218 17.2073 1.99982C17.1775 1.98745 17.1454 1.9811 17.1131 1.98112ZM12.9094 1.13301H13.4666V3.32142H12.9094V1.13301ZM8.72118 1.13301H9.27834V3.32142H8.72146L8.72118 1.13301ZM4.53295 1.13301H5.09067V3.32142H4.53323L4.53295 1.13301ZM1.13306 2.47331H4.04104V3.56751C4.04104 3.63278 4.06697 3.69537 4.11312 3.74152C4.15927 3.78768 4.22187 3.8136 4.28713 3.8136H5.33648C5.3688 3.81362 5.40081 3.80727 5.43068 3.79491C5.46054 3.78255 5.48768 3.76442 5.51053 3.74157C5.53339 3.71871 5.55152 3.69157 5.56388 3.66171C5.57624 3.63184 5.58259 3.59983 5.58257 3.56751V2.47331H8.22928V3.56751C8.22926 3.59983 8.23561 3.63184 8.24797 3.66171C8.26033 3.69157 8.27846 3.71871 8.30131 3.74157C8.32417 3.76442 8.35131 3.78255 8.38117 3.79491C8.41104 3.80727 8.44305 3.81362 8.47537 3.8136H9.52471C9.55704 3.81362 9.58904 3.80727 9.61891 3.79491C9.64878 3.78255 9.67591 3.76442 9.69877 3.74157C9.72162 3.71871 9.73975 3.69157 9.75211 3.66171C9.76447 3.63184 9.77083 3.59983 9.77081 3.56751V2.47331H12.4172V3.56751C12.4172 3.59983 12.4236 3.63184 12.4359 3.66171C12.4483 3.69157 12.4664 3.71871 12.4893 3.74157C12.5121 3.76442 12.5393 3.78255 12.5691 3.79491C12.599 3.80727 12.631 3.81362 12.6633 3.8136H13.7127C13.7779 3.8136 13.8405 3.78768 13.8867 3.74152C13.9328 3.69537 13.9588 3.63278 13.9588 3.56751V2.47331H16.8667V5.28932H1.13306V2.47331ZM1.13306 16.867V5.78151H16.867V16.867H1.13306Z" fill="#005A2B"/>
<path d="M3.88989 6.89273C3.66647 6.89273 3.44807 6.95898 3.2623 7.08311C3.07653 7.20724 2.93174 7.38366 2.84624 7.59008C2.76074 7.79649 2.73837 8.02362 2.78196 8.24275C2.82555 8.46188 2.93314 8.66316 3.09112 8.82115C3.2491 8.97913 3.45038 9.08672 3.66951 9.13031C3.88864 9.17389 4.11577 9.15152 4.32219 9.06602C4.5286 8.98052 4.70503 8.83573 4.82915 8.64996C4.95328 8.4642 5.01953 8.24579 5.01953 8.02237C5.01924 7.72286 4.90012 7.43571 4.68834 7.22392C4.47656 7.01214 4.1894 6.89303 3.88989 6.89273ZM3.88989 8.65982C3.76382 8.65982 3.64057 8.62244 3.53574 8.55239C3.43092 8.48235 3.34921 8.38279 3.30096 8.26631C3.25272 8.14983 3.24009 8.02166 3.26469 7.89801C3.28929 7.77436 3.35 7.66077 3.43915 7.57162C3.5283 7.48247 3.64188 7.42176 3.76553 7.39717C3.88919 7.37257 4.01736 7.38519 4.13384 7.43344C4.25032 7.48169 4.34987 7.56339 4.41992 7.66822C4.48996 7.77305 4.52735 7.89629 4.52735 8.02237C4.5272 8.19139 4.45999 8.35344 4.34048 8.47295C4.22096 8.59247 4.05891 8.65967 3.88989 8.65982Z" fill="#005A2B"/>
<path d="M7.29663 6.89273C7.07321 6.89273 6.85481 6.95898 6.66904 7.08311C6.48327 7.20724 6.33848 7.38366 6.25298 7.59008C6.16748 7.79649 6.14511 8.02362 6.1887 8.24275C6.23229 8.46188 6.33987 8.66316 6.49786 8.82115C6.65584 8.97913 6.85712 9.08672 7.07625 9.13031C7.29538 9.17389 7.52251 9.15152 7.72893 9.06602C7.93534 8.98052 8.11177 8.83573 8.2359 8.64996C8.36002 8.4642 8.42627 8.24579 8.42627 8.02237C8.42594 7.72287 8.30682 7.43574 8.09504 7.22396C7.88326 7.01219 7.59613 6.89307 7.29663 6.89273ZM7.29663 8.65982C7.17056 8.65982 7.04731 8.62244 6.94248 8.55239C6.83765 8.48235 6.75595 8.38279 6.7077 8.26631C6.65946 8.14983 6.64683 8.02166 6.67143 7.89801C6.69603 7.77436 6.75674 7.66077 6.84589 7.57162C6.93504 7.48247 7.04862 7.42176 7.17227 7.39717C7.29593 7.37257 7.4241 7.38519 7.54058 7.43344C7.65706 7.48169 7.75661 7.56339 7.82666 7.66822C7.8967 7.77305 7.93409 7.89629 7.93409 8.02237C7.9339 8.19138 7.86668 8.35341 7.74718 8.47291C7.62767 8.59242 7.46564 8.65964 7.29663 8.65982Z" fill="#005A2B"/>
<path d="M10.7034 6.89273C10.48 6.89273 10.2615 6.95898 10.0758 7.08311C9.89001 7.20724 9.74522 7.38366 9.65972 7.59008C9.57422 7.79649 9.55185 8.02362 9.59544 8.24275C9.63902 8.46188 9.74661 8.66316 9.9046 8.82115C10.0626 8.97913 10.2639 9.08672 10.483 9.13031C10.7021 9.17389 10.9293 9.15152 11.1357 9.06602C11.3421 8.98052 11.5185 8.83573 11.6426 8.64996C11.7668 8.4642 11.833 8.24579 11.833 8.02237C11.8327 7.72287 11.7136 7.43574 11.5018 7.22396C11.29 7.01219 11.0029 6.89307 10.7034 6.89273ZM10.7034 8.65982C10.5773 8.65982 10.4541 8.62244 10.3492 8.55239C10.2444 8.48235 10.1627 8.38279 10.1144 8.26631C10.0662 8.14983 10.0536 8.02166 10.0782 7.89801C10.1028 7.77436 10.1635 7.66077 10.2526 7.57162C10.3418 7.48247 10.4554 7.42176 10.579 7.39717C10.7027 7.37257 10.8308 7.38519 10.9473 7.43344C11.0638 7.48169 11.1634 7.56339 11.2334 7.66822C11.3034 7.77305 11.3408 7.89629 11.3408 8.02237C11.3407 8.19139 11.2735 8.35344 11.154 8.47295C11.0344 8.59247 10.8724 8.65967 10.7034 8.65982Z" fill="#005A2B"/>
<path d="M14.1105 6.89273C13.8871 6.8927 13.6686 6.95893 13.4829 7.08304C13.2971 7.20715 13.1523 7.38357 13.0667 7.58998C12.9812 7.79639 12.9588 8.02353 13.0024 8.24267C13.046 8.46181 13.1536 8.66311 13.3115 8.8211C13.4695 8.9791 13.6708 9.0867 13.8899 9.1303C14.1091 9.1739 14.3362 9.15154 14.5426 9.06604C14.749 8.98055 14.9255 8.83576 15.0496 8.64998C15.1737 8.46421 15.24 8.2458 15.24 8.02237C15.2397 7.72289 15.1206 7.43575 14.9089 7.22397C14.6971 7.01219 14.41 6.89307 14.1105 6.89273ZM14.1105 8.65983C13.9844 8.65986 13.8612 8.62249 13.7563 8.55247C13.6515 8.48244 13.5697 8.38289 13.5215 8.26642C13.4732 8.14994 13.4606 8.02176 13.4851 7.8981C13.5097 7.77444 13.5704 7.66084 13.6596 7.57168C13.7487 7.48251 13.8623 7.42179 13.9859 7.39718C14.1096 7.37257 14.2378 7.38519 14.3543 7.43343C14.4708 7.48167 14.5703 7.56338 14.6404 7.66821C14.7104 7.77304 14.7478 7.89629 14.7478 8.02237C14.7477 8.19137 14.6805 8.3534 14.561 8.47291C14.4415 8.59242 14.2795 8.65964 14.1105 8.65983Z" fill="#005A2B"/>
<path d="M3.88969 10.1953C3.66623 10.1953 3.44778 10.2615 3.26196 10.3857C3.07615 10.5098 2.93132 10.6862 2.84579 10.8927C2.76026 11.0991 2.73788 11.3263 2.78147 11.5455C2.82506 11.7646 2.93266 11.966 3.09067 12.124C3.24868 12.282 3.45 12.3896 3.66917 12.4332C3.88834 12.4768 4.11551 12.4544 4.32196 12.3688C4.52841 12.2833 4.70485 12.1385 4.82898 11.9527C4.95312 11.7669 5.01936 11.5484 5.01933 11.325C5.01899 11.0255 4.89987 10.7383 4.68809 10.5265C4.47632 10.3148 4.18918 10.1956 3.88969 10.1953ZM3.88969 11.9625C3.76358 11.9626 3.64029 11.9252 3.53542 11.8552C3.43055 11.7851 3.34881 11.6855 3.30053 11.569C3.25225 11.4525 3.2396 11.3243 3.26419 11.2006C3.28877 11.077 3.34949 10.9633 3.43865 10.8742C3.52781 10.785 3.64142 10.7242 3.76511 10.6996C3.88879 10.675 4.017 10.6876 4.13351 10.7359C4.25002 10.7841 4.34961 10.8659 4.41968 10.9707C4.48974 11.0756 4.52714 11.1988 4.52714 11.325C4.52681 11.4939 4.45952 11.6557 4.34003 11.7751C4.22054 11.8945 4.0586 11.9617 3.88969 11.9618V11.9625Z" fill="#005A2B"/>
<path d="M7.29667 10.1953C7.07321 10.1953 6.85476 10.2615 6.66894 10.3857C6.48313 10.5098 6.3383 10.6862 6.25278 10.8927C6.16725 11.0991 6.14486 11.3263 6.18845 11.5455C6.23204 11.7646 6.33964 11.966 6.49765 12.124C6.65567 12.282 6.85699 12.3896 7.07615 12.4332C7.29532 12.4768 7.5225 12.4544 7.72894 12.3688C7.93539 12.2833 8.11184 12.1385 8.23597 11.9527C8.3601 11.7669 8.42634 11.5484 8.42631 11.325C8.42594 11.0255 8.3068 10.7384 8.09504 10.5266C7.88327 10.3148 7.59616 10.1957 7.29667 10.1953ZM7.29667 11.9625C7.17056 11.9626 7.04727 11.9252 6.9424 11.8552C6.83753 11.7851 6.75579 11.6855 6.70751 11.569C6.65923 11.4525 6.64658 11.3243 6.67117 11.2006C6.69576 11.077 6.75647 10.9633 6.84563 10.8742C6.9348 10.785 7.0484 10.7242 7.17209 10.6996C7.29577 10.675 7.42398 10.6876 7.54049 10.7359C7.65701 10.7841 7.75659 10.8659 7.82666 10.9707C7.89673 11.0756 7.93412 11.1988 7.93412 11.325C7.93375 11.4938 7.86645 11.6557 7.74697 11.7751C7.62749 11.8945 7.46557 11.9616 7.29667 11.9618V11.9625Z" fill="#005A2B"/>
<path d="M10.7034 10.1953C10.4799 10.1953 10.2615 10.2615 10.0757 10.3857C9.88987 10.5098 9.74504 10.6862 9.65951 10.8927C9.57399 11.0991 9.5516 11.3263 9.59519 11.5455C9.63878 11.7646 9.74638 11.966 9.90439 12.124C10.0624 12.282 10.2637 12.3896 10.4829 12.4332C10.7021 12.4768 10.9292 12.4544 11.1357 12.3688C11.3421 12.2833 11.5186 12.1385 11.6427 11.9527C11.7668 11.7669 11.8331 11.5484 11.833 11.325C11.8327 11.0255 11.7135 10.7384 11.5018 10.5266C11.29 10.3148 11.0029 10.1957 10.7034 10.1953ZM10.7034 11.9625C10.5773 11.9626 10.454 11.9252 10.3491 11.8552C10.2443 11.7851 10.1625 11.6855 10.1142 11.569C10.066 11.4525 10.0533 11.3243 10.0779 11.2006C10.1025 11.077 10.1632 10.9633 10.2524 10.8742C10.3415 10.785 10.4551 10.7242 10.5788 10.6996C10.7025 10.675 10.8307 10.6876 10.9472 10.7359C11.0637 10.7841 11.1633 10.8659 11.2334 10.9707C11.3035 11.0756 11.3409 11.1988 11.3409 11.325C11.3405 11.4939 11.2732 11.6557 11.1537 11.7751C11.0343 11.8945 10.8723 11.9617 10.7034 11.9618V11.9625Z" fill="#005A2B"/>
<path d="M14.1103 10.1953C13.8868 10.1953 13.6684 10.2615 13.4825 10.3856C13.2967 10.5097 13.1518 10.6861 13.0663 10.8926C12.9807 11.099 12.9583 11.3262 13.0019 11.5454C13.0455 11.7646 13.1531 11.9659 13.3111 12.1239C13.4691 12.2819 13.6704 12.3896 13.8896 12.4332C14.1088 12.4768 14.3359 12.4544 14.5424 12.3689C14.7488 12.2833 14.9253 12.1385 15.0494 11.9527C15.1736 11.7669 15.2398 11.5484 15.2398 11.325C15.2395 11.0255 15.1203 10.7384 14.9086 10.5266C14.6969 10.3148 14.4098 10.1957 14.1103 10.1953ZM14.1103 11.9625C13.9842 11.9626 13.8609 11.9253 13.756 11.8552C13.6511 11.7852 13.5693 11.6856 13.521 11.5691C13.4727 11.4526 13.4601 11.3244 13.4846 11.2007C13.5092 11.077 13.5699 10.9634 13.6591 10.8742C13.7482 10.785 13.8618 10.7243 13.9855 10.6996C14.1092 10.675 14.2374 10.6876 14.3539 10.7359C14.4705 10.7841 14.5701 10.8658 14.6401 10.9707C14.7102 11.0756 14.7476 11.1988 14.7476 11.325C14.7473 11.4938 14.68 11.6557 14.5605 11.7751C14.4411 11.8945 14.2792 11.9616 14.1103 11.9618V11.9625Z" fill="#005A2B"/>
<path d="M3.88989 13.4966C3.66647 13.4966 3.44807 13.5629 3.2623 13.687C3.07653 13.8111 2.93174 13.9875 2.84624 14.194C2.76074 14.4004 2.73837 14.6275 2.78196 14.8466C2.82555 15.0658 2.93314 15.2671 3.09112 15.425C3.2491 15.583 3.45038 15.6906 3.66951 15.7342C3.88864 15.7778 4.11577 15.7554 4.32219 15.6699C4.5286 15.5844 4.70503 15.4396 4.82915 15.2539C4.95328 15.0681 5.01953 14.8497 5.01953 14.6263C5.01924 14.3267 4.90012 14.0396 4.68834 13.8278C4.47656 13.616 4.1894 13.4969 3.88989 13.4966ZM3.88989 15.2637C3.76382 15.2637 3.64057 15.2263 3.53574 15.1563C3.43092 15.0862 3.34921 14.9867 3.30096 14.8702C3.25272 14.7537 3.24009 14.6256 3.26469 14.5019C3.28929 14.3782 3.35 14.2647 3.43915 14.1755C3.5283 14.0864 3.64188 14.0256 3.76553 14.0011C3.88919 13.9765 4.01736 13.9891 4.13384 14.0373C4.25032 14.0856 4.34987 14.1673 4.41992 14.2721C4.48996 14.3769 4.52735 14.5002 4.52735 14.6263C4.5272 14.7953 4.45999 14.9573 4.34048 15.0768C4.22096 15.1964 4.05891 15.2636 3.88989 15.2637Z" fill="#005A2B"/>
<path d="M7.29663 13.4966C7.07321 13.4966 6.85481 13.5629 6.66904 13.687C6.48327 13.8111 6.33848 13.9875 6.25298 14.194C6.16748 14.4004 6.14511 14.6275 6.1887 14.8466C6.23229 15.0658 6.33987 15.2671 6.49786 15.425C6.65584 15.583 6.85712 15.6906 7.07625 15.7342C7.29538 15.7778 7.52251 15.7554 7.72893 15.6699C7.93534 15.5844 8.11177 15.4396 8.2359 15.2539C8.36002 15.0681 8.42627 14.8497 8.42627 14.6263C8.42594 14.3268 8.30682 14.0396 8.09504 13.8278C7.88326 13.6161 7.59613 13.4969 7.29663 13.4966ZM7.29663 15.2637C7.17056 15.2637 7.04731 15.2263 6.94248 15.1563C6.83765 15.0862 6.75595 14.9867 6.7077 14.8702C6.65946 14.7537 6.64683 14.6256 6.67143 14.5019C6.69603 14.3782 6.75674 14.2647 6.84589 14.1755C6.93504 14.0864 7.04862 14.0256 7.17227 14.0011C7.29593 13.9765 7.4241 13.9891 7.54058 14.0373C7.65706 14.0856 7.75661 14.1673 7.82666 14.2721C7.8967 14.3769 7.93409 14.5002 7.93409 14.6263C7.9339 14.7953 7.86668 14.9573 7.74718 15.0768C7.62767 15.1963 7.46564 15.2635 7.29663 15.2637Z" fill="#005A2B"/>
<path d="M10.7034 13.4966C10.48 13.4966 10.2615 13.5629 10.0758 13.687C9.89001 13.8111 9.74522 13.9875 9.65972 14.194C9.57422 14.4004 9.55185 14.6275 9.59544 14.8466C9.63902 15.0658 9.74661 15.2671 9.9046 15.425C10.0626 15.583 10.2639 15.6906 10.483 15.7342C10.7021 15.7778 10.9293 15.7554 11.1357 15.6699C11.3421 15.5844 11.5185 15.4396 11.6426 15.2539C11.7668 15.0681 11.833 14.8497 11.833 14.6263C11.8327 14.3268 11.7136 14.0396 11.5018 13.8278C11.29 13.6161 11.0029 13.4969 10.7034 13.4966ZM10.7034 15.2637C10.5773 15.2637 10.4541 15.2263 10.3492 15.1563C10.2444 15.0862 10.1627 14.9867 10.1144 14.8702C10.0662 14.7537 10.0536 14.6256 10.0782 14.5019C10.1028 14.3782 10.1635 14.2647 10.2526 14.1755C10.3418 14.0864 10.4554 14.0256 10.579 14.0011C10.7027 13.9765 10.8308 13.9891 10.9473 14.0373C11.0638 14.0856 11.1634 14.1673 11.2334 14.2721C11.3034 14.3769 11.3408 14.5002 11.3408 14.6263C11.3407 14.7953 11.2735 14.9573 11.154 15.0768C11.0344 15.1964 10.8724 15.2636 10.7034 15.2637Z" fill="#005A2B"/>
<path d="M14.1105 13.4966C13.8871 13.4966 13.6686 13.5628 13.4829 13.6869C13.2971 13.811 13.1523 13.9875 13.0667 14.1939C12.9812 14.4003 12.9588 14.6274 13.0024 14.8466C13.046 15.0657 13.1536 15.267 13.3115 15.425C13.4695 15.583 13.6708 15.6906 13.8899 15.7342C14.1091 15.7778 14.3362 15.7554 14.5426 15.6699C14.749 15.5844 14.9255 15.4396 15.0496 15.2539C15.1737 15.0681 15.24 14.8497 15.24 14.6263C15.2397 14.3268 15.1206 14.0396 14.9089 13.8279C14.6971 13.6161 14.41 13.4969 14.1105 13.4966ZM14.1105 15.2637C13.9844 15.2637 13.8612 15.2264 13.7563 15.1564C13.6515 15.0863 13.5697 14.9868 13.5215 14.8703C13.4732 14.7538 13.4606 14.6256 13.4851 14.502C13.5097 14.3783 13.5704 14.2647 13.6596 14.1756C13.7487 14.0864 13.8623 14.0257 13.9859 14.0011C14.1096 13.9765 14.2378 13.9891 14.3543 14.0373C14.4708 14.0856 14.5703 14.1673 14.6404 14.2721C14.7104 14.3769 14.7478 14.5002 14.7478 14.6263C14.7477 14.7953 14.6805 14.9573 14.561 15.0768C14.4415 15.1963 14.2795 15.2635 14.1105 15.2637Z" fill="#005A2B"/>
</svg>
