<svg width="11" height="11" viewBox="0 0 11 11" fill="none" xmlns="http://www.w3.org/2000/svg">
<path d="M1.3878 0.228448L5.5 4.34051L9.59528 0.24537C9.66705 0.168981 9.75351 0.107873 9.84947 0.0657101C9.94543 0.0235468 10.0489 0.00119668 10.1537 0C10.3781 0 10.5934 0.0891426 10.752 0.247818C10.9107 0.406493 10.9999 0.621702 10.9999 0.846102C11.0018 0.949836 10.9826 1.05288 10.9433 1.14891C10.904 1.24493 10.8455 1.33192 10.7714 1.40453L6.63382 5.49967L10.7714 9.63711C10.9109 9.77353 10.9926 9.95828 10.9999 10.1532C10.9999 10.3776 10.9107 10.5928 10.752 10.7515C10.5934 10.9102 10.3781 10.9993 10.1537 10.9993C10.0459 11.0038 9.93831 10.9858 9.8378 10.9465C9.73729 10.9072 9.64606 10.8474 9.5699 10.7709L5.5 6.65883L1.39626 10.7624C1.32476 10.8363 1.23935 10.8952 1.14496 10.9359C1.05056 10.9765 0.949045 10.9981 0.84627 10.9993C0.621862 10.9993 0.406645 10.9102 0.247964 10.7515C0.0892835 10.5928 0.000137671 10.3776 0.000137671 10.1532C-0.00183508 10.0495 0.0174119 9.94645 0.0566975 9.85042C0.095983 9.7544 0.154478 9.66741 0.228593 9.5948L4.36618 5.49967L0.228593 1.36222C0.0891381 1.2258 0.00736332 1.04105 0.000137671 0.846102C0.000137671 0.621702 0.0892835 0.406493 0.247964 0.247818C0.406645 0.0891426 0.621862 0 0.84627 0C1.04934 0.00253831 1.24395 0.0846102 1.3878 0.228448Z" fill="#C70000"/>
</svg>
