<svg width="24" height="19" viewBox="0 0 24 19" fill="none" xmlns="http://www.w3.org/2000/svg">
<path fill-rule="evenodd" clip-rule="evenodd" d="M3.17014 0.231874C3.45852 -0.0772913 3.92609 -0.0772913 4.21448 0.231874L7.16832 3.39854C7.45671 3.70771 7.45671 4.20896 7.16832 4.51813C6.87994 4.82729 6.41237 4.82729 6.12398 4.51813L4.43077 2.70292V16.2971L6.12398 14.4819C6.41237 14.1727 6.87994 14.1727 7.16832 14.4819C7.45671 14.791 7.45671 15.2923 7.16832 15.6015L4.21448 18.7681C3.92609 19.0773 3.45852 19.0773 3.17014 18.7681L0.21629 15.6015C-0.0720968 15.2923 -0.0720968 14.791 0.21629 14.4819C0.504678 14.1727 0.972246 14.1727 1.26063 14.4819L2.95385 16.2971V2.70292L1.26063 4.51813C0.972246 4.82729 0.504678 4.82729 0.21629 4.51813C-0.0720968 4.20896 -0.0720968 3.70771 0.21629 3.39854L3.17014 0.231874ZM9.23077 1.1875C9.23077 0.750275 9.56139 0.395833 9.96923 0.395833H15.1385C15.5463 0.395833 15.8769 0.750275 15.8769 1.1875C15.8769 1.62473 15.5463 1.97917 15.1385 1.97917H9.96923C9.56139 1.97917 9.23077 1.62473 9.23077 1.1875ZM9.23077 6.72917C9.23077 6.29194 9.56139 5.9375 9.96923 5.9375H17.3538C17.7617 5.9375 18.0923 6.29194 18.0923 6.72917C18.0923 7.16639 17.7617 7.52083 17.3538 7.52083H9.96923C9.56139 7.52083 9.23077 7.16639 9.23077 6.72917ZM9.23077 12.2708C9.23077 11.8336 9.56139 11.4792 9.96923 11.4792H20.3077C20.7155 11.4792 21.0462 11.8336 21.0462 12.2708C21.0462 12.7081 20.7155 13.0625 20.3077 13.0625H9.96923C9.56139 13.0625 9.23077 12.7081 9.23077 12.2708ZM9.23077 17.8125C9.23077 17.3753 9.56139 17.0208 9.96923 17.0208H23.2615C23.6694 17.0208 24 17.3753 24 17.8125C24 18.2497 23.6694 18.6042 23.2615 18.6042H9.96923C9.56139 18.6042 9.23077 18.2497 9.23077 17.8125Z" fill="#F2994A"/>
</svg>
