<svg width="16" height="16" viewBox="0 0 16 16" fill="none" xmlns="http://www.w3.org/2000/svg">
<path fill-rule="evenodd" clip-rule="evenodd" d="M2.11342 0.195262C2.30568 -0.0650874 2.61739 -0.0650874 2.80965 0.195262L4.77888 2.86193C4.97114 3.12228 4.97114 3.54439 4.77888 3.80474C4.58663 4.06509 4.27491 4.06509 4.08266 3.80474L2.95385 2.27614V13.7239L4.08266 12.1953C4.27491 11.9349 4.58663 11.9349 4.77888 12.1953C4.97114 12.4556 4.97114 12.8777 4.77888 13.1381L2.80965 15.8047C2.61739 16.0651 2.30568 16.0651 2.11342 15.8047L0.144194 13.1381C-0.0480645 12.8777 -0.0480645 12.4556 0.144194 12.1953C0.336452 11.9349 0.648164 11.9349 0.840422 12.1953L1.96923 13.7239V2.27614L0.840422 3.80474C0.648164 4.06509 0.336452 4.06509 0.144194 3.80474C-0.0480645 3.54439 -0.0480645 3.12228 0.144194 2.86193L2.11342 0.195262ZM6.15385 1C6.15385 0.63181 6.37426 0.333333 6.64615 0.333333H15.5077C15.7796 0.333333 16 0.63181 16 1C16 1.36819 15.7796 1.66667 15.5077 1.66667H6.64615C6.37426 1.66667 6.15385 1.36819 6.15385 1ZM6.15385 5.66667C6.15385 5.29848 6.37426 5 6.64615 5H13.5385C13.8104 5 14.0308 5.29848 14.0308 5.66667C14.0308 6.03486 13.8104 6.33333 13.5385 6.33333H6.64615C6.37426 6.33333 6.15385 6.03486 6.15385 5.66667ZM6.15385 10.3333C6.15385 9.96514 6.37426 9.66667 6.64615 9.66667H11.5692C11.8411 9.66667 12.0615 9.96514 12.0615 10.3333C12.0615 10.7015 11.8411 11 11.5692 11H6.64615C6.37426 11 6.15385 10.7015 6.15385 10.3333ZM6.15385 15C6.15385 14.6318 6.37426 14.3333 6.64615 14.3333H10.0923C10.3642 14.3333 10.5846 14.6318 10.5846 15C10.5846 15.3682 10.3642 15.6667 10.0923 15.6667H6.64615C6.37426 15.6667 6.15385 15.3682 6.15385 15Z" fill="#F2994A"/>
</svg>
