<svg width="22" height="21" viewBox="0 0 22 21" fill="none" xmlns="http://www.w3.org/2000/svg">
<path fill-rule="evenodd" clip-rule="evenodd" d="M3.99987 1.51677C5.47991 0.527841 7.21997 0 9 0C11.3869 0.000151932 13.676 0.948406 15.3638 2.63619C17.0516 4.32397 17.9998 6.61305 18 8.99994C18 10.78 17.4722 12.5201 16.4832 14.0001C15.4943 15.4802 14.0887 16.6337 12.4442 17.3149C10.7996 17.9961 8.99002 18.1743 7.24419 17.8271C5.49836 17.4798 3.89472 16.6226 2.63604 15.364C1.37737 14.1053 0.520203 12.5016 0.172937 10.7558C-0.17433 9.00998 0.00389946 7.20038 0.685088 5.55585C1.36628 3.91131 2.51983 2.50571 3.99987 1.51677ZM8.99994 2C7.61549 2.00001 6.26214 2.41055 5.11101 3.17971C3.95987 3.94888 3.06266 5.04213 2.53285 6.32121C2.00303 7.6003 1.86441 9.00776 2.13451 10.3656C2.4046 11.7235 3.07129 12.9708 4.05026 13.9497C5.02922 14.9287 6.2765 15.5954 7.63437 15.8655C8.99224 16.1356 10.3997 15.997 11.6788 15.4672C12.9579 14.9373 14.0511 14.0401 14.8203 12.889C15.5894 11.7379 16 10.3845 16 9.00006M8.99994 2C10.8564 2.00013 12.6369 2.73767 13.9496 4.0504C15.2623 5.36313 15.9999 7.14359 16 9.00006" fill="#535353"/>
<path fill-rule="evenodd" clip-rule="evenodd" d="M14.2318 14.3598C14.5853 13.9355 15.2159 13.8782 15.6402 14.2318L21.6402 19.2318C22.0645 19.5853 22.1218 20.2159 21.7682 20.6402C21.4147 21.0645 20.7841 21.1218 20.3598 20.7682L14.3598 15.7682C13.9355 15.4147 13.8782 14.7841 14.2318 14.3598Z" fill="#535353"/>
</svg>
