<svg width="212" height="42" viewBox="0 0 212 42" fill="none" xmlns="http://www.w3.org/2000/svg">
<g clip-path="url(#clip0)">
<path d="M14.5028 0H42.3914L33.9403 42.4186H6.05176L14.5028 0Z" fill="#00D169"/>
<path d="M0 35.4089L6.34724 5.46076H14.3788L9.42843 28.8744H19.2266L17.8298 35.4089H0ZM32.5373 24.5113L30.2161 35.4089H22.1845L28.5317 5.46076H36.4812C39.9321 5.46076 42.5751 6.14358 44.4101 7.50921C46.2453 8.87483 47.1626 10.9301 47.1626 13.675C47.1626 15.8054 46.6765 17.6626 45.7044 19.2467C44.7319 20.8309 43.2872 22.0395 41.37 22.8725L45.9714 33.4424L46.7927 35.4089H38.0423L34.0368 24.5113H32.5373ZM33.8314 18.4274H34.879C36.1799 18.4274 37.2138 18.0587 37.9807 17.3212C38.7476 16.5701 39.131 15.5254 39.131 14.1871C39.131 13.3404 38.8913 12.6986 38.412 12.2616C37.9464 11.8109 37.2617 11.5856 36.3579 11.5856H35.2692L33.8314 18.4274ZM49.3401 27.3586L50.6341 20.9675H61.9935L60.6789 27.3586H49.3401ZM82.7812 26.2115C82.7812 29.2431 81.7743 31.6057 79.7615 33.299C77.7486 34.9787 74.941 35.8186 71.3395 35.8186C69.8333 35.8186 68.4089 35.6547 67.0669 35.327C65.7248 34.9856 64.5679 34.494 63.5958 33.8521V26.6826C64.7458 27.4064 66.0604 28.0141 67.5397 28.5057C69.0322 28.9973 70.3811 29.2431 71.586 29.2431C72.5993 29.2431 73.3661 29.0314 73.8865 28.6081C74.4069 28.1848 74.6671 27.5839 74.6671 26.8055C74.6671 26.4368 74.5852 26.0954 74.4206 25.7813C74.2564 25.4535 74.0237 25.1326 73.7224 24.8185C73.421 24.4907 72.613 23.7806 71.2984 22.6881C69.6961 21.4044 68.5324 20.0934 67.8067 18.7551C67.0806 17.4168 66.718 15.9488 66.718 14.351C66.718 12.562 67.1629 10.9574 68.0532 9.53717C68.9567 8.10324 70.2234 6.99712 71.8531 6.21868C73.4965 5.42661 75.3315 5.03062 77.3581 5.03062C80.6312 5.03062 83.5755 5.76122 86.1911 7.22243L83.4177 13.3063C81.0761 12.1045 79.0838 11.5037 77.4404 11.5037C76.5638 11.5037 75.8861 11.6948 75.4069 12.0772C74.941 12.4596 74.7082 13.0195 74.7082 13.757C74.7082 14.4261 74.9341 15.0543 75.3863 15.6415C75.8518 16.2151 76.7284 16.9867 78.0156 17.9563C79.6316 19.1443 80.8296 20.3939 81.6102 21.7049C82.3907 23.0159 82.7812 24.518 82.7812 26.2115ZM98.6387 35.4089H90.6073L95.4754 12.0772H88.9639L90.3814 5.46076H111.497L110.039 12.0772H103.507L98.6387 35.4089ZM138.756 5.46076L134.668 24.5522C133.86 28.3896 132.319 31.2301 130.046 33.0737C127.773 34.9036 124.685 35.8186 120.782 35.8186C118.947 35.8186 117.324 35.4431 115.914 34.692C114.517 33.9409 113.435 32.8893 112.669 31.5374C111.915 30.1854 111.539 28.6764 111.539 27.0103C111.539 26.1363 111.621 25.2555 111.785 24.3678L115.873 5.46076H123.904L119.899 24.163C119.707 25.0916 119.611 25.8769 119.611 26.5187C119.611 28.253 120.44 29.1202 122.097 29.1202C123.384 29.1202 124.391 28.6832 125.117 27.8092C125.856 26.9216 126.418 25.5696 126.801 23.7533L130.724 5.46076H138.756ZM165.932 16.7886C165.932 20.6124 165.254 23.9309 163.898 26.744C162.542 29.5436 160.571 31.6876 157.983 33.1761C155.408 34.6646 152.354 35.4089 148.821 35.4089H139.146L145.493 5.46076H154.039C157.818 5.46076 160.742 6.45083 162.809 8.43101C164.891 10.3975 165.932 13.1834 165.932 16.7886ZM150.033 28.772C151.539 28.772 152.881 28.294 154.059 27.3381C155.25 26.3821 156.175 25.0233 156.832 23.2617C157.489 21.4864 157.818 19.4652 157.818 17.1983C157.818 15.4913 157.449 14.2008 156.709 13.3268C155.969 12.4391 154.935 11.9953 153.607 11.9953H152.149L148.616 28.772H150.033ZM167.904 35.4089L174.251 5.46076H182.406L176.059 35.4089H167.904ZM200.646 4.98962C204.207 4.98962 206.973 6.00701 208.945 8.04181C210.931 10.0629 211.923 12.8898 211.923 16.5223C211.923 20.1549 211.239 23.4802 209.869 26.4982C208.514 29.5026 206.638 31.8105 204.241 33.4219C201.845 35.0197 199.065 35.8186 195.901 35.8186C192.218 35.8186 189.369 34.8012 187.356 32.7664C185.357 30.7316 184.357 27.9048 184.357 24.2859C184.357 20.667 185.063 17.3417 186.473 14.31C187.884 11.2783 189.801 8.97041 192.224 7.38631C194.662 5.78854 197.469 4.98962 200.646 4.98962ZM203.81 16.6043C203.81 15.0475 203.481 13.8321 202.824 12.958C202.167 12.0704 201.215 11.6266 199.969 11.6266C198.613 11.6266 197.367 12.2001 196.23 13.3472C195.093 14.4944 194.183 16.0717 193.498 18.0791C192.827 20.0866 192.491 22.1419 192.491 24.2449C192.491 27.5498 193.861 29.2022 196.6 29.2022C197.901 29.2022 199.106 28.6354 200.215 27.502C201.338 26.3685 202.214 24.839 202.844 22.9135C203.488 20.9879 203.81 18.8849 203.81 16.6043Z" fill="white"/>
</g>
<defs>
<clipPath id="clip0">
<rect width="212" height="42" fill="white"/>
</clipPath>
</defs>
</svg>
