<svg width="12" height="15" viewBox="0 0 12 15" fill="none" xmlns="http://www.w3.org/2000/svg">
<path d="M11.8398 3.76172C11.942 3.86217 12 3.99777 12 4.14007V14.4643C12 14.7606 11.7563 15 11.4545 15H0.545455C0.24375 15 0 14.7606 0 14.4643V0.535714C0 0.239397 0.24375 0 0.545455 0H7.78466C7.92955 0 8.06932 0.0569197 8.17159 0.157366L11.8398 3.76172ZM10.742 4.38616L7.53409 1.23549V4.38616H10.742ZM7.07966 6.92812L6.03614 8.64074L4.98239 6.92745C4.96417 6.89787 4.93848 6.8734 4.90781 6.85642C4.87715 6.83944 4.84254 6.83052 4.80733 6.83052H4.1521C4.11349 6.83053 4.07567 6.84127 4.04301 6.8615C4.02027 6.87557 4.00057 6.8939 3.98505 6.91545C3.96953 6.93701 3.95848 6.96135 3.95255 6.9871C3.94661 7.01285 3.9459 7.03949 3.95045 7.06551C3.95501 7.09153 3.96474 7.11641 3.97909 7.13873L5.38261 9.3221L3.96017 11.545C3.93966 11.577 3.92879 11.6141 3.92881 11.652C3.92881 11.7052 3.95036 11.7563 3.98872 11.794C4.02708 11.8317 4.0791 11.8528 4.13335 11.8528H4.72074C4.75563 11.8528 4.78993 11.8441 4.82039 11.8274C4.85085 11.8107 4.87646 11.7866 4.89477 11.7574L5.96352 10.0587L7.02545 11.7571C7.04376 11.7864 7.0694 11.8105 7.09993 11.8273C7.13046 11.8441 7.16485 11.8529 7.19983 11.8528H7.83869C7.87785 11.8528 7.91619 11.8418 7.94915 11.821C7.97176 11.8068 7.99129 11.7883 8.00662 11.7667C8.02196 11.745 8.0328 11.7206 8.03853 11.6948C8.04426 11.669 8.04477 11.6424 8.04002 11.6164C8.03527 11.5905 8.02536 11.5657 8.01085 11.5435L6.58193 9.35792L8.03591 7.14023C8.05712 7.10777 8.06836 7.06999 8.0683 7.03142C8.0683 6.97814 8.04675 6.92704 8.00839 6.88936C7.97003 6.85169 7.918 6.83052 7.86375 6.83052H7.25523C7.21988 6.83055 7.18515 6.83957 7.15441 6.8567C7.12367 6.87384 7.09797 6.8985 7.07983 6.92829L7.07966 6.92812Z" fill="#F8F8F8"/>
</svg>
