<svg width="29" height="20" viewBox="0 0 29 20" fill="none" xmlns="http://www.w3.org/2000/svg">
<path fill-rule="evenodd" clip-rule="evenodd" d="M6.29028 0.347826C6.29028 0.155727 6.44272 0 6.63076 0H9.88857C10.0766 0 10.229 0.155727 10.229 0.347826V2.44449C10.229 2.63659 10.3815 2.79232 10.5695 2.79232H10.8301C11.0181 2.79232 11.1706 2.94805 11.1706 3.14015V12.4794C11.1706 12.6715 11.323 12.8272 11.5111 12.8272H12.6975C12.8855 12.8272 13.038 12.6715 13.038 12.4794V5.49617C13.038 5.30407 13.1904 5.14834 13.3784 5.14834H25.267C25.4551 5.14834 25.6075 5.30407 25.6075 5.49617V9.68708C25.6075 9.87918 25.7599 10.0349 25.948 10.0349H28.6594C28.8708 10.0349 29.0311 10.2297 28.9949 10.4424L28.9743 10.5628L28.5812 10.4799C28.9743 10.5628 28.9743 10.5628 28.9743 10.5628L28.9743 10.5631L28.9742 10.5637L28.9651 10.6171C28.9602 10.6456 28.9535 10.6848 28.9451 10.7336L28.9387 10.7711C28.9159 10.904 28.8831 11.0947 28.8431 11.3261C28.7632 11.7887 28.6545 12.4138 28.5395 13.0637C28.3118 14.3495 28.0528 15.7711 27.9459 16.1868L27.9379 16.218C27.7765 16.8474 27.3293 18.5903 25.6595 19.2745L25.6493 19.2787L25.6389 19.2822C24.5742 19.6466 23.2231 19.8237 22.1573 19.9115C21.6205 19.9557 21.1485 19.9778 20.8106 19.9889C20.6415 19.9944 20.5057 19.9972 20.4118 19.9986C20.3649 19.9993 20.3284 19.9996 20.3034 19.9998C20.2973 19.9999 20.2919 19.9999 20.2872 19.9999C20.2823 19.9999 20.2782 20 20.2748 20L20.2672 20L20.2646 20H20.2644C20.2644 20 20.2643 20 20.2643 19.555L20.2644 20H1.38496C1.21369 20 1.06907 19.87 1.04726 19.6965L0.00282524 11.3869C-0.0233154 11.1789 0.135276 10.9948 0.34053 10.9948H2.02673C2.21477 10.9948 2.36721 10.839 2.36721 10.6469V5.49738H3.83135C4.01939 5.49738 4.17182 5.34166 4.17182 5.14956V3.14015C4.17182 2.94805 4.32426 2.79232 4.5123 2.79232H5.9498C6.13785 2.79232 6.29028 2.63659 6.29028 2.44449V0.347826ZM7.09059 2.44449C7.09059 2.63659 7.24303 2.79232 7.43107 2.79232H9.08826C9.2763 2.79232 9.42874 2.63659 9.42874 2.44449V1.23788C9.42874 1.04578 9.2763 0.890052 9.08826 0.890052H7.43107C7.24303 0.890052 7.09059 1.04578 7.09059 1.23788V2.44449ZM5.31261 3.68237C5.12457 3.68237 4.97213 3.8381 4.97213 4.0302V5.14956C4.97213 5.34165 5.12457 5.49738 5.31261 5.49738H10.0298C10.2178 5.49738 10.3703 5.34166 10.3703 5.14956V4.0302C10.3703 3.8381 10.2178 3.68237 10.0298 3.68237H5.31261ZM10.3703 6.73526C10.3703 6.54316 10.2178 6.38743 10.0298 6.38743H3.50799C3.31995 6.38743 3.16752 6.54316 3.16752 6.73526V10.6469C3.16752 10.839 3.31995 10.9948 3.50799 10.9948H6.90703C7.09507 10.9948 7.24751 11.1505 7.24751 11.3426V12.4794C7.24751 12.6715 7.39995 12.8272 7.58799 12.8272H10.0298C10.2178 12.8272 10.3703 12.6715 10.3703 12.4794V6.73526ZM6.78768 13.7173C6.59964 13.7173 6.44721 13.5616 6.44721 13.3695V12.2326C6.44721 12.0405 6.29477 11.8848 6.10673 11.8848H1.26049C1.05523 11.8848 0.896644 12.069 0.922784 12.2769L1.74348 18.8064C1.76529 18.98 1.9099 19.1099 2.08118 19.1099L20.266 19.1099L20.2723 19.1099C20.278 19.1099 20.2868 19.1099 20.2983 19.1098C20.3215 19.1096 20.3561 19.1093 20.4011 19.1086C20.4912 19.1073 20.6226 19.1046 20.787 19.0992C21.116 19.0885 21.5757 19.0669 22.0982 19.0239C23.147 18.9375 24.4189 18.7666 25.3929 18.4352C26.6577 17.9107 27.0119 16.5832 27.1725 15.9575L27.1764 15.9424C27.2714 15.5728 27.5223 14.202 27.7542 12.8918C27.869 12.2437 27.9774 11.6199 28.0572 11.1581C28.0782 11.0365 27.9866 10.925 27.8657 10.925H21.4643C21.3632 10.925 21.2673 10.9709 21.2026 11.0502L19.987 12.542C19.8947 12.6553 19.9736 12.8272 20.1179 12.8272H20.7869C20.9749 12.8272 21.1273 12.983 21.1273 13.1751V13.3695C21.1273 13.5616 20.9749 13.7173 20.7869 13.7173H6.78768ZM17.7613 12.4794C17.7613 12.6715 17.9138 12.8272 18.1018 12.8272H18.4352C18.5869 12.8272 18.7307 12.7584 18.8277 12.6393L19.7599 11.4953C19.9445 11.2687 19.7868 10.925 19.4982 10.925H18.1018C17.9138 10.925 17.7613 11.0807 17.7613 11.2728V12.4794ZM17.7613 9.68708C17.7613 9.87918 17.9138 10.0349 18.1018 10.0349H20.5436C20.7317 10.0349 20.8841 9.87918 20.8841 9.68708V8.8295C20.8841 8.6374 20.7317 8.48167 20.5436 8.48167H18.1018C17.9138 8.48167 17.7613 8.6374 17.7613 8.8295V9.68708ZM16.6206 8.48167C16.8086 8.48167 16.961 8.6374 16.961 8.8295V9.68708C16.961 9.87918 16.8086 10.0349 16.6206 10.0349H14.1788C13.9907 10.0349 13.8383 9.87918 13.8383 9.68708V8.8295C13.8383 8.6374 13.9907 8.48167 14.1788 8.48167H16.6206ZM17.7613 7.2438C17.7613 7.4359 17.9138 7.59162 18.1018 7.59162H20.5436C20.7317 7.59162 20.8841 7.4359 20.8841 7.2438V6.38622C20.8841 6.19412 20.7317 6.03839 20.5436 6.03839H18.1018C17.9138 6.03839 17.7613 6.19412 17.7613 6.38622V7.2438ZM16.6206 6.03839C16.8086 6.03839 16.961 6.19412 16.961 6.38622V7.2438C16.961 7.4359 16.8086 7.59162 16.6206 7.59162H14.1788C13.9907 7.59162 13.8383 7.4359 13.8383 7.2438V6.38622C13.8383 6.19412 13.9907 6.03839 14.1788 6.03839H16.6206ZM22.0249 6.03839C21.8369 6.03839 21.6844 6.19412 21.6844 6.38622V7.2438C21.6844 7.4359 21.8369 7.59162 22.0249 7.59162H24.4667C24.6547 7.59162 24.8072 7.4359 24.8072 7.2438V6.38622C24.8072 6.19412 24.6547 6.03839 24.4667 6.03839H22.0249ZM24.8072 8.8295C24.8072 8.6374 24.6547 8.48167 24.4667 8.48167H22.0249C21.8369 8.48167 21.6844 8.6374 21.6844 8.8295V9.68708C21.6844 9.87918 21.8369 10.0349 22.0249 10.0349H24.4667C24.6547 10.0349 24.8072 9.87918 24.8072 9.68708V8.8295ZM13.8383 11.2728C13.8383 11.0807 13.9907 10.925 14.1788 10.925H16.6206C16.8086 10.925 16.961 11.0807 16.961 11.2728V12.4794C16.961 12.6715 16.8086 12.8272 16.6206 12.8272H14.1788C13.9907 12.8272 13.8383 12.6715 13.8383 12.4794V11.2728Z" fill="black"/>
<path fill-rule="evenodd" clip-rule="evenodd" d="M4.50921 17.1902C4.50921 17.436 4.31418 17.6352 4.07359 17.6352H3.73134C3.71895 17.6352 3.7089 17.625 3.7089 17.6123V17.154C3.7089 16.9282 3.88806 16.7452 4.10906 16.7452C4.33006 16.7452 4.50921 16.9282 4.50921 17.154V17.1902ZM11.1942 17.1902C11.1942 17.436 10.9991 17.6353 10.7585 17.6353H5.82363C5.58305 17.6353 5.38801 17.436 5.38801 17.1902C5.38801 16.9444 5.58305 16.7452 5.82363 16.7452H10.7585C10.9991 16.7452 11.1942 16.9444 11.1942 17.1902Z" fill="black"/>
</svg>
