<svg width="26" height="19" viewBox="0 0 26 19" fill="none" xmlns="http://www.w3.org/2000/svg">
<path fill-rule="evenodd" clip-rule="evenodd" d="M0 0.319328C0 0.142968 0.147349 0 0.329114 0H18.5085C19.4742 0 20.3825 0.458314 20.9186 1.24665C21.5882 2.23109 22.6065 3.77101 23.5654 5.39141C24.5206 7.00547 25.4311 8.72311 25.8706 10.0563L25.8776 10.0773L25.8818 10.099C25.9926 10.6731 26.0396 11.1889 25.9608 11.6898C25.881 12.1969 25.6761 12.6655 25.3186 13.1531C24.3794 14.4335 22.7986 14.6239 21.2222 14.6239H0.365664C0.365664 14.6239 0.365528 14.6239 0.365528 14.2691L0.365664 14.6239H0.329114C0.147349 14.6239 0 14.481 0 14.3046V0.319328ZM0.731057 13.595C0.731057 13.7713 0.878406 13.9143 1.06017 13.9143H21.2222C22.7975 13.9143 24.0162 13.7051 24.723 12.7415C25.0246 12.3302 25.1781 11.964 25.2381 11.5826C25.2983 11.2003 25.2682 10.7804 25.1674 10.2515C24.7504 8.99768 23.8784 7.34499 22.9315 5.74487C21.9831 4.14215 20.9738 2.61571 20.3086 1.63764C19.9118 1.05425 19.2361 0.70963 18.5085 0.70963H1.06017C0.878406 0.70963 0.731057 0.852597 0.731057 1.02896V13.595Z" fill="black"/>
<path fill-rule="evenodd" clip-rule="evenodd" d="M7.44675 3.47093C7.44675 3.29457 7.2994 3.1516 7.11764 3.1516H3.21751C3.03575 3.1516 2.8884 3.29457 2.8884 3.47093V11.0139C2.8884 11.1902 3.03575 11.3332 3.21751 11.3332H7.11764C7.2994 11.3332 7.44675 11.1902 7.44675 11.0139V3.47093ZM2.48646 2.44197C2.30469 2.44197 2.15734 2.58494 2.15734 2.7613V11.7235C2.15734 11.8999 2.30469 12.0428 2.48645 12.0428H7.8487C8.03046 12.0428 8.17781 11.8999 8.17781 11.7235V2.7613C8.17781 2.58494 8.03046 2.44197 7.8487 2.44197H2.48646Z" fill="black"/>
<path fill-rule="evenodd" clip-rule="evenodd" d="M15.044 3.47093C15.044 3.29457 14.8967 3.1516 14.7149 3.1516H10.8148C10.633 3.1516 10.4857 3.29457 10.4857 3.47093V6.56131C10.4857 6.73767 10.633 6.88063 10.8148 6.88063H14.7149C14.8967 6.88063 15.044 6.73767 15.044 6.56131V3.47093ZM10.0837 2.44197C9.90195 2.44197 9.7546 2.58494 9.7546 2.7613V7.27094C9.7546 7.4473 9.90195 7.59026 10.0837 7.59026H15.446C15.6277 7.59026 15.7751 7.4473 15.7751 7.27094V2.7613C15.7751 2.58494 15.6277 2.44197 15.446 2.44197H10.0837Z" fill="black"/>
<path fill-rule="evenodd" clip-rule="evenodd" d="M17.4164 2.76824C17.4164 2.59188 17.5637 2.44892 17.7455 2.44892H21.6522V3.15855H18.4765C18.2948 3.15855 18.1474 3.30151 18.1474 3.47787V6.56825C18.1474 6.74461 18.2948 6.88758 18.4765 6.88758H24.3757V7.59721H17.7455C17.5637 7.59721 17.4164 7.45424 17.4164 7.27788V2.76824Z" fill="black"/>
<path fill-rule="evenodd" clip-rule="evenodd" d="M2.15734 10.9297H0.437208V10.2201H2.15734V10.9297Z" fill="black"/>
<path fill-rule="evenodd" clip-rule="evenodd" d="M6.45768 4.87002C6.45768 5.06598 6.29395 5.22483 6.09199 5.22483H4.24316C4.0412 5.22483 3.87748 5.06598 3.87748 4.87002C3.87748 4.67406 4.0412 4.5152 4.24316 4.5152H6.09199C6.29395 4.5152 6.45768 4.67406 6.45768 4.87002Z" fill="black"/>
<path fill-rule="evenodd" clip-rule="evenodd" d="M6.45768 6.40059C6.45768 6.59655 6.29395 6.75541 6.09199 6.75541H4.24316C4.0412 6.75541 3.87748 6.59655 3.87748 6.40059C3.87748 6.20464 4.0412 6.04578 4.24316 6.04578H6.09199C6.29395 6.04578 6.45768 6.20464 6.45768 6.40059Z" fill="black"/>
<path fill-rule="evenodd" clip-rule="evenodd" d="M18.0686 10.5749C18.0686 10.7708 17.9049 10.9297 17.7029 10.9297H8.03446V10.2201H17.7029C17.9049 10.2201 18.0686 10.3789 18.0686 10.5749Z" fill="black"/>
<path fill-rule="evenodd" clip-rule="evenodd" d="M25.5225 10.9297L20.2977 10.9297C20.0958 10.9297 19.9321 10.7708 19.9321 10.5749C19.9321 10.3789 20.0958 10.2201 20.2977 10.2201H25.5225V10.9297Z" fill="black"/>
<path fill-rule="evenodd" clip-rule="evenodd" d="M18.0686 12.5229C18.0686 12.7189 17.9049 12.8777 17.7029 12.8777L12.8438 12.8777C12.6419 12.8777 12.4781 12.7189 12.4781 12.5229C12.4781 12.3269 12.6419 12.1681 12.8438 12.1681H17.7029C17.9049 12.1681 18.0686 12.3269 18.0686 12.5229Z" fill="black"/>
<path fill-rule="evenodd" clip-rule="evenodd" d="M11.6324 12.5229C11.6324 12.7188 11.4688 12.8777 11.2669 12.8777C11.065 12.8777 10.9014 12.7188 10.9014 12.5229C10.9014 12.327 11.065 12.1681 11.2669 12.1681C11.4688 12.1681 11.6324 12.327 11.6324 12.5229Z" fill="black"/>
<path fill-rule="evenodd" clip-rule="evenodd" d="M19.7918 15.4768C19.9942 15.2695 20.1622 14.989 20.2587 14.6309H16.7307C16.8263 15.0106 16.9973 15.2948 17.1995 15.4982C17.513 15.8135 17.9601 15.9945 18.498 15.9945C19.0215 15.9945 19.4708 15.8057 19.7918 15.4768ZM15.9832 14.6309C15.9404 14.4109 15.9178 14.1743 15.9178 13.9213H21.0782C21.0782 14.1727 21.0541 14.4096 21.0085 14.6309C20.7386 15.9405 19.717 16.7041 18.498 16.7041C17.2723 16.7041 16.2462 15.9835 15.9832 14.6309Z" fill="black"/>
<path fill-rule="evenodd" clip-rule="evenodd" d="M13.9153 15.4768C14.1177 15.2695 14.2857 14.989 14.3822 14.6309H10.8542C10.9498 15.0106 11.1208 15.2948 11.323 15.4982C11.6365 15.8135 12.0836 15.9945 12.6215 15.9945C13.145 15.9945 13.5943 15.8057 13.9153 15.4768ZM10.1067 14.6309C10.0639 14.4109 10.0413 14.1743 10.0413 13.9213H15.2017C15.2017 14.1727 15.1776 14.4096 15.132 14.6309C14.8621 15.9405 13.8405 16.7041 12.6215 16.7041C11.3958 16.7041 10.3697 15.9835 10.1067 14.6309Z" fill="black"/>
<path fill-rule="evenodd" clip-rule="evenodd" d="M25.2091 17.1816C25.2091 17.0052 25.0618 16.8623 24.88 16.8623H1.07967C0.897902 16.8623 0.750552 17.0052 0.750552 17.1816V18.0356C0.750552 18.2119 0.897902 18.3549 1.07967 18.3549H24.88C25.0618 18.3549 25.2091 18.2119 25.2091 18.0356V17.1816ZM0.336288 16.2171C0.154524 16.2171 0.00717422 16.3601 0.00717422 16.5365V18.6807C0.00717422 18.857 0.154523 19 0.336288 19H25.6234C25.8052 19 25.9525 18.857 25.9525 18.6807V16.5365C25.9525 16.3601 25.8052 16.2171 25.6234 16.2171H0.336288Z" fill="black"/>
</svg>
