<svg width="12" height="16" viewBox="0 0 12 16" fill="none" xmlns="http://www.w3.org/2000/svg">
<path d="M11.1032 1.2161H7.77027V0.887718C7.77027 0.398272 7.37219 0 6.88286 0H5.11719C4.62776 0 4.22963 0.398272 4.22963 0.887769V1.21615H0.896765C0.402298 1.21615 0 1.61031 0 2.09472V2.67524C0 3.03933 0.227211 3.35232 0.549934 3.48545C0.652179 5.49804 1.24391 15.2285 1.27053 15.6658C1.28195 15.8535 1.43935 16 1.6297 16H10.3703C10.5607 16 10.7181 15.8535 10.7295 15.6658C10.7561 15.2286 11.3478 5.49804 11.4501 3.48545C11.7728 3.35232 12 3.03933 12 2.67524V2.09467C12 1.61026 11.5977 1.2161 11.1032 1.2161ZM4.9493 0.887769C4.9493 0.790347 5.02461 0.711109 5.11719 0.711109H6.88286C6.97539 0.711109 7.05065 0.790347 7.05065 0.887769V1.21615H4.94935V0.887769H4.9493ZM0.719571 2.09467C0.719571 2.00233 0.799044 1.92721 0.896663 1.92721H11.1031C11.2008 1.92721 11.2802 2.00228 11.2802 2.09467V2.67519C11.2802 2.76758 11.2008 2.84276 11.1031 2.84276H0.896714C0.799095 2.84276 0.719623 2.76764 0.719623 2.67519V2.09467H0.719571ZM10.0313 15.2888H1.96846C1.86282 13.5493 1.37838 5.55305 1.27398 3.55387H10.7257C10.6213 5.55305 10.1369 13.5493 10.0313 15.2888Z" fill="#C70707"/>
<path d="M5.99996 4.83179C5.80123 4.83179 5.64013 4.99097 5.64013 5.18734V14.1325C5.64013 14.3289 5.80123 14.4881 5.99996 14.4881C6.1987 14.4881 6.3598 14.3289 6.3598 14.1325V5.18734C6.3598 4.99097 6.1987 4.83179 5.99996 4.83179Z" fill="#C70707"/>
<path d="M3.56849 5.183C3.5581 4.98693 3.38821 4.83572 3.1904 4.84649C2.99198 4.8567 2.83946 5.02396 2.84984 5.22007L3.32185 14.151C3.33187 14.3408 3.49071 14.4881 3.68086 14.4881C3.68718 14.4881 3.69356 14.4879 3.69993 14.4875C3.89836 14.4773 4.05088 14.3101 4.04049 14.114L3.56849 5.183Z" fill="#C70707"/>
<path d="M8.80955 4.84654C8.60912 4.83522 8.44185 4.98694 8.43147 5.18305L7.95936 14.114C7.94897 14.3101 8.10149 14.4774 8.29992 14.4876C8.30634 14.488 8.31267 14.4881 8.31899 14.4881C8.50909 14.4881 8.66798 14.3409 8.678 14.1511L9.15011 5.22013C9.16049 5.02401 9.00803 4.85675 8.80955 4.84654Z" fill="#C70707"/>
</svg>
