<svg width="29" height="19" viewBox="0 0 29 19" fill="none" xmlns="http://www.w3.org/2000/svg">
<path fill-rule="evenodd" clip-rule="evenodd" d="M0 0.32054C0 0.143511 0.140289 0 0.313344 0H17.9546C18.1277 0 18.268 0.14351 18.268 0.32054V16.2834H9.7215V15.466H17.4689V1.13792C17.4689 0.960887 17.3286 0.817376 17.1556 0.817376H1.11237C0.939316 0.817376 0.799028 0.960887 0.799028 1.13792V15.1455C0.799028 15.3225 0.939316 15.466 1.11237 15.466H4.15964V16.2834H0.313344C0.140289 16.2834 0 16.1399 0 15.9629V0.32054Z" fill="black"/>
<path fill-rule="evenodd" clip-rule="evenodd" d="M17.4689 3.52594C17.4689 3.34891 17.6092 3.2054 17.7823 3.2054H23.4129C24.0414 3.2054 24.6348 3.50224 25.0206 4.00975L28.472 8.54908C28.8142 8.9992 29 9.55317 29 10.1234V15.9629C29 16.1399 28.8597 16.2834 28.6867 16.2834H25.3104V15.466H27.8876C28.0607 15.466 28.201 15.3225 28.201 15.1455V9.52402L24.5828 4.76526C24.2266 4.29678 23.6789 4.02277 23.0988 4.02277H18.5813C18.4083 4.02277 18.268 4.16628 18.268 4.34331V15.466H19.6702V16.2834H17.4689V3.52594Z" fill="black"/>
<path fill-rule="evenodd" clip-rule="evenodd" d="M18.9573 4.96837C18.9573 4.79134 19.0976 4.64783 19.2707 4.64783H25.069V5.4652H20.0697C19.8966 5.4652 19.7563 5.60871 19.7563 5.78574V8.81484C19.7563 8.99187 19.8966 9.13538 20.0697 9.13538H28.2871V9.95276H19.2707C19.0976 9.95276 18.9573 9.80925 18.9573 9.63222V4.96837Z" fill="black"/>
<path fill-rule="evenodd" clip-rule="evenodd" d="M6.90141 18.1826C8.19067 18.1826 9.23583 17.1135 9.23583 15.7946C9.23583 14.4757 8.19067 13.4066 6.90141 13.4066C5.61215 13.4066 4.567 14.4757 4.567 15.7946C4.567 17.1135 5.61215 18.1826 6.90141 18.1826ZM22.4903 18.1826C23.7795 18.1826 24.8247 17.1135 24.8247 15.7946C24.8247 14.4757 23.7795 13.4066 22.4903 13.4066C21.201 13.4066 20.1559 14.4757 20.1559 15.7946C20.1559 17.1135 21.201 18.1826 22.4903 18.1826ZM6.90141 19C8.63196 19 10.0349 17.5649 10.0349 15.7946C10.0349 14.0243 8.63196 12.5892 6.90141 12.5892C5.17086 12.5892 3.76797 14.0243 3.76797 15.7946C3.76797 17.5649 5.17086 19 6.90141 19ZM22.4903 19C24.2208 19 25.6237 17.5649 25.6237 15.7946C25.6237 14.0243 24.2208 12.5892 22.4903 12.5892C20.7597 12.5892 19.3568 14.0243 19.3568 15.7946C19.3568 17.5649 20.7597 19 22.4903 19Z" fill="black"/>
<path d="M6.4314 15.3138H7.23042V16.1312H6.4314V15.3138Z" fill="black"/>
<path d="M22.0203 15.7225C22.0203 15.4968 22.1991 15.3138 22.4198 15.3138C22.6404 15.3138 22.8193 15.4968 22.8193 15.7225C22.8193 15.9482 22.6404 16.1312 22.4198 16.1312C22.1991 16.1312 22.0203 15.9482 22.0203 15.7225Z" fill="black"/>
<path fill-rule="evenodd" clip-rule="evenodd" d="M3.14128 2.25981C3.14128 2.0341 3.32015 1.85112 3.5408 1.85112L17.5551 1.85112V2.6685L3.5408 2.6685C3.32015 2.6685 3.14128 2.48552 3.14128 2.25981Z" fill="black"/>
<path fill-rule="evenodd" clip-rule="evenodd" d="M4.88036 4.02278C4.88036 3.79706 5.05923 3.61409 5.27987 3.61409L10.7477 3.61409C10.9684 3.61409 11.1472 3.79706 11.1472 4.02278C11.1472 4.24849 10.9684 4.43147 10.7477 4.43147L5.27987 4.43146C5.05923 4.43146 4.88036 4.24849 4.88036 4.02278Z" fill="black"/>
<path fill-rule="evenodd" clip-rule="evenodd" d="M3.1413 4.02278C3.1413 3.79707 3.32017 3.61409 3.54081 3.61409C3.76146 3.61409 3.94033 3.79707 3.94033 4.02278C3.94033 4.24849 3.76146 4.43147 3.54081 4.43147C3.32017 4.43147 3.1413 4.24849 3.1413 4.02278Z" fill="black"/>
<path fill-rule="evenodd" clip-rule="evenodd" d="M10.3482 13.7992C10.3482 13.5735 10.5271 13.3905 10.7477 13.3905L17.5551 13.3906V14.2079L10.7477 14.2079C10.5271 14.2079 10.3482 14.025 10.3482 13.7992Z" fill="black"/>
<path fill-rule="evenodd" clip-rule="evenodd" d="M0.321185 13.4877C0.321185 13.434 0.363697 13.3906 0.416138 13.3906H3.05511C3.27576 13.3906 3.45463 13.5735 3.45463 13.7992C3.45463 14.025 3.27576 14.2079 3.05511 14.2079H0.416138C0.363697 14.2079 0.321185 14.1644 0.321185 14.1108V13.4877Z" fill="black"/>
<path fill-rule="evenodd" clip-rule="evenodd" d="M26.4854 13.7992C26.4854 13.5735 26.6643 13.3906 26.8849 13.3906H28.6788V14.2079H26.8849C26.6643 14.2079 26.4854 14.025 26.4854 13.7992Z" fill="black"/>
</svg>
